<?xml version="1.0" encoding="UTF-8"?>
<svg id="_2" data-name="2" xmlns="http://www.w3.org/2000/svg" viewBox="0 0 417.06 799.84">
  <defs>
    <style>
      .cls-1 {
        fill: #fff;
        stroke: #000;
        stroke-linejoin: round;
        stroke-width: 10px;
      }
    </style>
  </defs>
  <path class="cls-1" d="M341.63,555.66c-47.79-75.12-51.91-128.39-51.91-128.39H127.35s-4.12,53.27-51.92,128.39c-30.3,47.61-73.15,60.84-70.29,111.35,1.34,23.41,24.12,28.13,24.12,28.13h358.57s22.78-4.72,24.1-28.13c2.89-50.51-39.99-63.74-70.29-111.35Z"/>
  <path class="cls-1" d="M208.53,50.84c12.83,0,23.23-10.25,23.23-22.92,0-12.65-10.4-22.92-23.23-22.92s-23.19,10.27-23.19,22.92c0,12.67,10.37,22.92,23.19,22.92Z"/>
  <path class="cls-1" d="M132.06,319.24h162.39s36.7-36.21,33.99-99.56c-4.21-97.72-91.55-152.89-137.17-146.89,0,0,14.03,71.52,24.33,108.12,15.2,54.05-33.27,56.45-40.11,30.03-8.55-33.04-22.67-92.57-22.67-92.57-41.53,15.72-62.29,59.38-64.2,99.56-2.06,43.94,20.79,89.07,43.44,101.3Z"/>
  <path class="cls-1" d="M81.98,402.58h253.11c10.72,0,14.29-16.75,0-25.12-14.27-8.39-28.58-18.85-28.58-33.51H110.55c0,14.66-14.27,25.12-28.58,33.51-14.27,8.37-10.71,25.12,0,25.12Z"/>
  <polygon class="cls-1" points="29.25 719.83 9.61 752.5 9.61 794.84 407.46 794.84 407.46 752.5 387.82 719.83 29.25 719.83"/>
</svg>