<?xml version="1.0" encoding="UTF-8"?>
<svg id="_2" data-name=" 2" xmlns="http://www.w3.org/2000/svg" viewBox="0 0 599.92 801">
  <defs>
    <style>
      .cls-1 {
        fill: none;
      }

      .cls-1, .cls-2 {
        stroke-width: 0px;
      }

      .cls-2 {
        fill: #fff;
      }
    </style>
  </defs>
  <polygon class="cls-2" points="594.24 763.65 594.24 801 122.15 801 122.15 763.65 141.91 730.35 574.49 730.35 594.24 763.65"/>
  <path class="cls-2" d="M597.9,670.6c1.25,3.06,2.01,6.51,2.02,10.94-.03,5.27-1.22,8.66-2.89,11.49-1.25,2.11-2.86,3.87-4.7,5.41-2.77,2.32-6.06,3.95-8.59,4.94-.36.15-.68.25-.99.36v-.4H134.09v.57c-.57-.2-1.16-.42-1.87-.68-3.27-1.31-7.56-3.7-10.54-7.04-1.51-1.68-2.74-3.55-3.67-5.85-.91-2.31-1.54-5.08-1.56-8.8.02-4.14.68-7.39,1.77-10.27.95-2.54,2.26-4.79,3.95-7.01,2.97-3.86,7.22-7.47,12.32-10.98,3.83-2.62,8.06-5.14,12.4-7.73,6.52-3.92,13.27-7.82,19.36-13.42,3-2.79,5.87-6.12,8.07-10.28.13-.25.21-.51.33-.77h367.08c1.52,3.08,3.42,5.77,5.49,8.1,2.71,3.01,5.69,5.5,8.73,7.74,5.34,3.88,10.94,7.09,16.32,10.3,8.04,4.79,15.41,9.63,20.17,14.96,2.4,2.67,4.2,5.38,5.45,8.41h0Z"/>
  <path class="cls-2" d="M321.06.01c5.64,1.25,11.19,3.87,16.38,7.32,7.77,5.17,14.55,12.18,19.18,17.86,2.32,2.83,4.11,5.31,5.3,7.03.6.87,1.04,1.54,1.3,1.97l.3.47.03.06,4.5,7.51,8.68-1.06c2.74-.31,5.64-.5,8.66-.5,15.86-.03,35.54,4.76,55.77,14.77,30.41,14.99,62.05,41.55,85.97,79.43,23.9,37.91,40.26,87.12,40.29,148.21,0,30.59-4.16,64.19-13.56,100.81-14.72,57.17-18.12,116.03-18.12,159.28,0,21.63.87,39.31,1.64,50.91h-38.22c-5.8-24.97-8.15-49.53-8.15-73.77-.02-41.95,6.99-82.96,14.82-122.82,7.81-39.89,16.49-78.61,19.21-116.36h0c.28-4.11.44-8.29.44-12.55,0-19.86-3.15-41.35-9.78-62.62-9.94-31.86-27.68-63.41-54.87-87.3-13.59-11.92-29.57-21.88-47.89-28.8-18.28-6.93-38.9-10.81-61.67-10.79v27.01c26.3.02,48.19,5.89,66.61,15.58,13.83,7.29,25.73,16.77,35.87,27.82,15.21,16.57,26.45,36.67,33.83,57.54,7.41,20.85,10.91,42.45,10.89,61.56,0,3.63-.13,7.17-.36,10.61-2.47,34.92-10.83,72.8-18.77,113.09-7.91,40.3-15.33,83.05-15.35,128.03,0,24.02,2.17,48.63,7.51,73.77H178.56c1.67-22.35,6.01-41.13,11.84-57.53,10.52-29.52,25.9-51.61,39.61-73.26,6.84-10.81,13.27-21.56,18.15-33.2,4.87-11.6,8.07-24.22,8.06-37.99,0-.96-.05-1.91-.09-2.84,2.49-.77,4.94-1.58,7.34-2.42,10.24-3.59,19.53-7.81,27.55-12.81,8.03-5.02,14.89-10.77,19.86-18.15l-22.49-14.99c-1.87,2.89-5.79,6.62-11.65,10.23-8.72,5.47-21.48,10.63-36.23,14.56-14.79,3.9-31.61,6.68-48.7,7.89-22.16,1.56-39.97,8.21-54.39,15.82-14.43,7.61-25.7,16.05-35.08,21.42-4.08,2.35-7.56,3.11-10.66,3.14-2.34,0-4.52-.49-6.54-1.29-3-1.21-5.59-3.31-7.25-5.54-1.7-2.23-2.3-4.46-2.29-5.74.02-.94.19-1.5.68-2.28l-1.03-.69c1.8-1.06,3.58-2.19,5.3-3.46,3.71-2.7,9.61-6.57,16.18-10.71,9.9-6.22,21.42-13.15,30.43-18.47,4.5-2.68,8.39-4.96,11.14-6.56,1.37-.8,2.47-1.43,3.21-1.86.75-.44,1.15-.67,1.15-.67l-13.5-23.38s-11.74,6.77-25.59,15.08c-6.93,4.17-14.39,8.69-21.23,13.01-6.85,4.31-13.04,8.35-17.68,11.71-7.49,5.42-15.14,7.57-22.91,7.61-5.34,0-10.73-1.1-15.79-3.09-7.61-2.98-14.41-8.06-19-13.85-2.3-2.9-4.08-5.95-5.24-8.99s-1.73-6.02-1.75-8.93c.03-3.35.74-6.6,2.47-10.11,1.74-3.49,4.57-7.26,9.15-11.12,2.47-2.09,5.9-5.25,10.41-9.44,15.54-14.62,42.92-41.37,66.49-64.54,22.34-21.95,41.17-40.63,43.09-42.53,8.19-7.32,17.53-16.91,28.04-27.7,15.91-16.42,34.36-35.57,53.61-52.6,19.25-17.06,39.38-31.92,57.68-39.9l5.8-2.52,1.75-6.07.02-.05c.27-.98,6.78-22.82,16.38-43.62,4.75-10.38,10.38-20.5,15.74-27.18,2.64-3.37,5.23-5.8,7.11-7.09.97-.63,1.7-.98,2.2-1.16.5-.17.74-.18.87-.18h.24ZM55.97,344.59c0-8.38-6.79-15.17-15.17-15.17s-15.17,6.79-15.17,15.17,6.8,15.14,15.17,15.14,15.17-6.78,15.17-15.14Z"/>
  <path class="cls-1" d="M40.81,329.43c8.38,0,15.17,6.79,15.17,15.17s-6.79,15.14-15.17,15.14-15.17-6.78-15.17-15.14,6.8-15.17,15.17-15.17Z"/>
</svg>