<?xml version="1.0" encoding="UTF-8"?>
<svg id="_2" data-name=" 2" xmlns="http://www.w3.org/2000/svg" viewBox="0 0 599.79 797.42">
  <defs>
    <style>
      .cls-1 {
        fill: #fff;
      }

      .cls-1, .cls-2 {
        stroke: #000;
        stroke-linejoin: round;
        stroke-width: 10px;
      }

      .cls-2 {
        fill: none;
      }
    </style>
  </defs>
  <polygon class="cls-1" points="589.2 755.7 589.2 792.42 125.11 792.42 125.11 755.7 144.54 722.97 569.79 722.97 589.2 755.7"/>
  <path class="cls-1" d="M592.8,664.23c1.23,3.01,1.98,6.4,1.99,10.75-.03,5.18-1.2,8.51-2.84,11.3-1.23,2.07-2.81,3.8-4.62,5.32-2.72,2.28-5.96,3.88-8.44,4.86-.35.15-.67.25-.97.35v-.39H136.85v.56c-.56-.2-1.14-.41-1.84-.67-3.21-1.29-7.43-3.64-10.36-6.92-1.48-1.65-2.69-3.49-3.61-5.75-.89-2.27-1.51-4.99-1.53-8.65.02-4.07.67-7.26,1.74-10.1.93-2.5,2.22-4.71,3.88-6.89,2.92-3.79,7.1-7.34,12.11-10.79,3.77-2.58,7.92-5.05,12.19-7.6,6.41-3.85,13.05-7.69,19.03-13.19,2.95-2.74,5.77-6.02,7.93-10.11.13-.25.21-.5.32-.76h360.86c1.49,3.03,3.36,5.67,5.4,7.96,2.66,2.96,5.59,5.41,8.58,7.61,5.25,3.81,10.75,6.97,16.04,10.13,7.9,4.71,15.15,9.47,19.83,14.71,2.36,2.62,4.13,5.29,5.36,8.27h0Z"/>
  <path class="cls-1" d="M320.65,5c5.54,1.23,11,3.8,16.1,7.2,7.64,5.08,14.3,11.97,18.86,17.56,2.28,2.78,4.04,5.22,5.21,6.91.59.86,1.02,1.51,1.28,1.94l.29.46.03.06,4.42,7.38,8.53-1.04c2.69-.3,5.54-.49,8.51-.49,15.59-.03,34.94,4.68,54.83,14.52,29.89,14.74,61,40.85,84.51,78.08,23.5,37.27,39.58,85.64,39.61,145.7,0,30.07-4.09,63.1-13.33,99.1-14.47,56.2-17.81,114.06-17.81,156.58,0,21.26.86,38.64,1.61,50.05h-37.57c-5.7-24.55-8.01-48.69-8.01-72.52-.02-41.24,6.87-81.55,14.57-120.74,7.68-39.21,16.21-77.28,18.88-114.39h0c.28-4.04.43-8.15.43-12.34,0-19.52-3.1-40.65-9.61-61.56-9.77-31.32-27.21-62.34-53.94-85.82-13.36-11.72-29.07-21.51-47.08-28.31-17.97-6.81-38.24-10.63-60.63-10.61v26.55c25.85.02,47.37,5.79,65.48,15.32,13.6,7.17,25.29,16.49,35.26,27.35,14.95,16.29,26,36.05,33.26,56.57,7.28,20.5,10.73,41.73,10.71,60.52,0,3.57-.13,7.05-.35,10.43-2.43,34.33-10.65,71.57-18.45,111.17-7.78,39.62-15.07,81.64-15.09,125.86,0,23.61,2.13,47.81,7.38,72.52H180.56c1.64-21.97,5.91-40.43,11.64-56.56,10.34-29.02,25.46-50.74,38.94-72.02,6.72-10.63,13.05-21.19,17.84-32.64,4.79-11.4,7.93-23.81,7.92-37.35,0-.94-.05-1.88-.09-2.79,2.45-.76,4.86-1.55,7.22-2.38,10.07-3.53,19.2-7.68,27.08-12.59,7.89-4.93,14.64-10.59,19.52-17.84l-22.11-14.74c-1.84,2.84-5.69,6.51-11.45,10.06-8.57,5.38-21.12,10.45-35.62,14.31-14.54,3.83-31.07,6.57-47.88,7.76-21.78,1.53-39.29,8.07-53.47,15.55-14.19,7.48-25.26,15.78-34.49,21.06-4.01,2.31-7.43,3.06-10.48,3.09-2.3,0-4.44-.48-6.43-1.27-2.95-1.19-5.5-3.25-7.13-5.45-1.67-2.19-2.26-4.38-2.25-5.64.02-.92.19-1.47.67-2.24l-1.01-.68c1.77-1.04,3.52-2.15,5.21-3.4,3.65-2.65,9.45-6.46,15.91-10.53,9.73-6.11,21.06-12.93,29.91-18.16,4.42-2.63,8.25-4.88,10.95-6.45,1.35-.79,2.43-1.41,3.16-1.83.74-.43,1.13-.66,1.13-.66l-13.27-22.98s-11.54,6.66-25.16,14.82c-6.81,4.1-14.15,8.54-20.87,12.79-6.73,4.24-12.82,8.21-17.38,11.51-7.36,5.33-14.88,7.44-22.52,7.48-5.25,0-10.55-1.08-15.52-3.04-7.48-2.93-14.17-7.92-18.68-13.62-2.26-2.85-4.01-5.85-5.15-8.84s-1.7-5.92-1.72-8.78c.03-3.29.73-6.49,2.43-9.94,1.71-3.43,4.49-7.14,9-10.93,2.43-2.05,5.8-5.16,10.23-9.28,15.28-14.37,42.19-40.67,65.36-63.45,21.96-21.58,40.47-39.94,42.36-41.81,8.05-7.2,17.23-16.62,27.57-27.23,15.64-16.14,33.78-34.97,52.7-51.71,18.92-16.77,38.71-31.38,56.7-39.22l5.7-2.48,1.72-5.97.02-.05c.27-.96,6.67-22.43,16.1-42.88,4.67-10.2,10.2-20.15,15.47-26.72,2.6-3.31,5.14-5.7,6.99-6.97.95-.62,1.67-.96,2.16-1.14.49-.17.73-.18.86-.18h.24l.04-.03ZM60.05,343.74c0-8.24-6.67-14.91-14.91-14.91s-14.91,6.67-14.91,14.91,6.68,14.88,14.91,14.88,14.91-6.67,14.91-14.88Z"/>
  <path class="cls-2" d="M45.15,328.84c8.24,0,14.91,6.67,14.91,14.91s-6.67,14.88-14.91,14.88-14.91-6.67-14.91-14.88,6.68-14.91,14.91-14.91Z"/>
</svg>