<?xml version="1.0" encoding="UTF-8"?>
<svg id="_2" data-name=" 2" xmlns="http://www.w3.org/2000/svg" viewBox="0 0 612.84 801">
  <defs>
    <style>
      .cls-1 {
        fill: #000;
      }

      .cls-1, .cls-2 {
        stroke-width: 0px;
      }

      .cls-2, .cls-3 {
        fill: none;
      }

      .cls-3 {
        stroke: #fff;
        stroke-miterlimit: 10;
      }
    </style>
  </defs>
  <polygon class="cls-1" points="581.75 740.28 581.75 775.23 140.04 775.23 140.04 740.28 158.53 709.13 563.27 709.13 581.75 740.28"/>
  <path class="cls-1" d="M585.18,653.22c1.17,2.86,1.88,6.09,1.89,10.24-.03,4.93-1.14,8.1-2.7,10.75-1.17,1.97-2.68,3.62-4.4,5.06-2.59,2.17-5.67,3.7-8.04,4.62-.34.14-.64.23-.93.34v-.37H151.21v.53c-.53-.19-1.09-.39-1.75-.64-3.06-1.23-7.07-3.46-9.86-6.59-1.41-1.57-2.56-3.32-3.43-5.47-.85-2.16-1.44-4.75-1.46-8.23.02-3.87.64-6.91,1.66-9.61.89-2.38,2.11-4.48,3.7-6.56,2.78-3.61,6.76-6.99,11.53-10.27,3.58-2.45,7.54-4.81,11.6-7.23,6.1-3.67,12.42-7.32,18.11-12.56,2.81-2.61,5.49-5.73,7.55-9.62.12-.23.2-.48.31-.72h343.46c1.42,2.88,3.2,5.4,5.14,7.58,2.54,2.82,5.32,5.15,8.17,7.24,5,3.63,10.24,6.63,15.27,9.64,7.52,4.48,14.42,9.01,18.87,14,2.25,2.5,3.93,5.03,5.1,7.87h0Z"/>
  <path class="cls-1" d="M326.15,25.78c5.28,1.17,10.47,3.62,15.33,6.85,7.27,4.84,13.61,11.4,17.95,16.71,2.17,2.65,3.85,4.97,4.96,6.58.56.81.97,1.44,1.22,1.84l.28.44.03.06,4.21,7.03,8.12-.99c2.56-.29,5.28-.47,8.1-.47,14.84-.03,33.25,4.45,52.18,13.82,28.45,14.03,58.06,38.88,80.44,74.32,22.36,35.47,37.67,81.51,37.7,138.67,0,28.62-3.89,60.06-12.69,94.32-13.77,53.49-16.95,108.56-16.95,149.03,0,20.24.81,36.78,1.53,47.63h-35.76c-5.43-23.36-7.63-46.34-7.63-69.02-.02-39.25,6.54-77.62,13.87-114.92,7.31-37.32,15.43-73.55,17.97-108.87h0c.26-3.85.41-7.76.41-11.74,0-18.58-2.95-38.69-9.15-58.59-9.3-29.81-25.9-59.33-51.34-81.68-12.72-11.15-27.67-20.47-44.81-26.95-17.1-6.48-36.4-10.11-57.7-10.1v25.27c24.61.02,45.09,5.51,62.32,14.58,12.94,6.82,24.07,15.69,33.56,26.03,14.23,15.5,24.75,34.31,31.65,53.84,6.93,19.51,10.21,39.72,10.19,57.6,0,3.4-.12,6.71-.34,9.93-2.31,32.67-10.13,68.12-17.56,105.81-7.4,37.71-14.34,77.71-14.36,119.79,0,22.47,2.03,45.5,7.03,69.02H192.82c1.56-20.91,5.62-38.48,11.08-53.83,9.84-27.62,24.23-48.29,37.06-68.55,6.4-10.11,12.42-20.17,16.98-31.06,4.56-10.85,7.55-22.66,7.54-35.55,0-.9-.05-1.79-.08-2.66,2.33-.72,4.62-1.48,6.87-2.26,9.58-3.36,18.27-7.31,25.78-11.99,7.51-4.7,13.93-10.08,18.58-16.98l-21.04-14.03c-1.75,2.7-5.42,6.19-10.9,9.57-8.16,5.12-20.1,9.95-33.9,13.62-13.84,3.65-29.58,6.25-45.57,7.38-20.73,1.46-37.4,7.68-50.89,14.8-13.5,7.12-24.05,15.02-32.82,20.04-3.82,2.2-7.07,2.91-9.97,2.94-2.19,0-4.23-.46-6.12-1.21-2.81-1.13-5.23-3.1-6.78-5.18-1.59-2.09-2.15-4.17-2.14-5.37.02-.88.18-1.4.64-2.13l-.96-.65c1.68-.99,3.35-2.05,4.96-3.24,3.47-2.53,8.99-6.15,15.14-10.02,9.26-5.82,20.04-12.3,28.47-17.28,4.21-2.51,7.85-4.64,10.42-6.14,1.28-.75,2.31-1.34,3-1.74.7-.41,1.08-.63,1.08-.63l-12.63-21.88s-10.98,6.33-23.94,14.11c-6.48,3.9-13.46,8.13-19.86,12.17-6.41,4.03-12.2,7.81-16.54,10.96-7.01,5.07-14.17,7.08-21.44,7.12-5,0-10.04-1.03-14.77-2.89-7.12-2.79-13.48-7.54-17.78-12.96-2.15-2.71-3.82-5.57-4.9-8.41s-1.62-5.63-1.64-8.36c.03-3.13.69-6.18,2.31-9.46,1.63-3.27,4.28-6.79,8.56-10.4,2.31-1.96,5.52-4.91,9.74-8.83,14.54-13.68,40.16-38.71,62.21-60.39,20.9-20.54,38.52-38.02,40.32-39.79,7.66-6.85,16.4-15.82,26.24-25.92,14.89-15.36,32.15-33.28,50.16-49.22,18.01-15.96,36.85-29.87,53.97-37.33l5.43-2.36,1.64-5.68.02-.05c.25-.92,6.34-21.35,15.33-40.81,4.44-9.71,9.71-19.18,14.73-25.43,2.47-3.15,4.89-5.43,6.65-6.63.91-.59,1.59-.92,2.06-1.09.47-.16.69-.17.81-.17h.22ZM78.12,348.19c0-7.84-6.35-14.19-14.19-14.19s-14.19,6.35-14.19,14.19,6.36,14.17,14.19,14.17,14.19-6.34,14.19-14.17Z"/>
  <path class="cls-3" d="M612.34,663.46c.02,6.9-1.36,13.22-3.68,18.6-2.31,5.44-5.56,9.9-9.02,13.43-3.41,3.42-6.98,6.01-10.34,7.99l17.73,29.86v67.16H114.77v-67.16l17.74-29.89c-2.21-1.31-4.51-2.83-6.8-4.72-3.59-2.96-7.12-6.77-9.99-11.55-3.84-6.38-6.31-14.5-6.28-23.72,0-7.23,1.36-13.94,3.8-19.84,2.43-5.92,5.88-10.97,9.72-15.2,7.71-8.49,16.83-14.03,24.66-18.75,5.21-3.12,9.93-5.88,13.3-8.35,1.92-1.42,3.37-2.7,4.31-3.73,1.06-1.2,1.39-1.95,1.53-2.42.08-.25.12-.48.12-.86v-.33c.83-38.61,9.52-68.7,20.75-93.13,11.22-24.46,24.77-43.3,34.99-59.94,6.85-11.08,12.17-21.1,15.03-30.98,1.33-4.53,2.12-9.04,2.42-13.75-10.66,2.03-21.77,3.5-33.04,4.31-16.74,1.23-29.5,5.97-40.94,11.95-11.41,5.98-21.28,13.35-31.92,19.54-7.37,4.3-15.22,6.34-22.63,6.33-8.4.01-16.11-2.53-22.42-6.58-6.3-4.05-11.3-9.56-14.48-16.09-1.34-2.77-2.31-5.76-2.87-8.86-2.31.26-4.64.42-6.93.42-12.65,0-24.6-3.79-34.75-9.96-10.11-6.18-18.54-14.79-23.9-25.16-3.55-6.9-5.69-14.64-5.69-22.76-.02-6.91,1.59-14.04,4.93-20.74,3.34-6.68,8.35-12.91,14.89-18.42,1.34-1.14,3.95-3.49,7.26-6.58,3.32-3.11,7.41-7,12-11.4,9.21-8.83,20.46-19.77,31.89-30.95,22.83-22.32,46.32-45.54,55.64-54.77,2.66-2.63,4.15-4.12,4.15-4.12l.25-.25.25-.23c4.96-4.4,11.12-10.51,18.05-17.54,6.91-7.09,14.64-15.15,22.91-23.56,16.6-16.84,35.43-35.19,55.31-50.55,11.59-8.94,23.51-16.89,35.75-22.88,1.12-3.47,2.74-8.34,4.8-14.02,4.12-11.3,9.93-25.72,17.19-38.8,4.87-8.74,10.29-16.89,17.03-23.41,3.87-3.69,8.27-6.92,13.72-8.92,2.89-1.04,6.07-1.7,9.41-1.68,1.87,0,3.79.2,5.7.62,9.07,2.03,17.03,5.95,23.86,10.51,6.82,4.55,12.55,9.75,17.23,14.65,4.44,4.64,7.9,8.99,10.38,12.38,1.08-.04,2.16-.09,3.25-.09,14.83,0,30.77,3.2,47.03,9.32,16.26,6.13,32.85,15.18,48.84,27.17,31.95,23.94,61.48,59.61,79.97,106.68,12.33,31.36,19.75,67.77,19.73,108.9,0,30.91-4.15,64.48-13.47,100.64-12.98,50.32-16.17,103.61-16.17,142.71,0,34.32,2.44,57.75,2.55,58.89v.03l.26,2.39c.05.17.1.33.22.56.33.63,1.06,1.64,2.4,2.89,2.69,2.57,7.78,5.77,13.82,9.33,4.01,2.4,8.46,5.01,12.95,8.1,5.98,4.11,12.13,9.06,17.25,15.69,2.92,3.78,5.46,8.13,7.32,13.02,2.14,5.58,3.31,11.86,3.29,18.57h0ZM587.07,663.46c-.01-4.15-.72-7.38-1.89-10.24-1.17-2.84-2.85-5.37-5.1-7.87-4.45-4.99-11.35-9.52-18.87-14-5.03-3.01-10.27-6.01-15.27-9.64-2.85-2.09-5.63-4.42-8.17-7.24-1.94-2.18-3.72-4.7-5.14-7.58H189.17c-.11.24-.19.49-.31.72-2.06,3.89-4.74,7.01-7.55,9.62-5.69,5.24-12.01,8.89-18.11,12.56-4.06,2.42-8.02,4.78-11.6,7.23-4.77,3.28-8.75,6.66-11.53,10.27-1.59,2.08-2.81,4.18-3.7,6.56-1.02,2.7-1.64,5.74-1.66,9.61.02,3.48.61,6.07,1.46,8.23.87,2.15,2.02,3.9,3.43,5.47,2.79,3.13,6.8,5.36,9.86,6.59.66.25,1.22.45,1.75.64v-.53h419.79v.37c.29-.11.59-.2.93-.34,2.37-.92,5.45-2.45,8.04-4.62,1.72-1.44,3.23-3.09,4.4-5.06,1.56-2.65,2.67-5.82,2.7-10.75h0ZM581.75,775.23v-34.95l-18.48-31.15H158.53l-18.49,31.15v34.95h441.71ZM543.98,384.96c8.8-34.26,12.69-65.7,12.69-94.32-.03-57.16-15.34-103.2-37.7-138.67-22.38-35.44-51.99-60.29-80.44-74.32-18.93-9.37-37.34-13.85-52.18-13.82-2.82,0-5.54.18-8.1.47l-8.12.99-4.21-7.03-.03-.06-.28-.44c-.25-.4-.66-1.03-1.22-1.84-1.11-1.61-2.79-3.93-4.96-6.58-4.34-5.31-10.68-11.87-17.95-16.71-4.86-3.23-10.05-5.68-15.33-6.85h-.22c-.12,0-.34,0-.81.16-.47.17-1.15.5-2.06,1.09-1.76,1.2-4.18,3.48-6.65,6.63-5.02,6.25-10.29,15.72-14.73,25.43-8.99,19.46-15.08,39.89-15.33,40.81l-.02.05-1.64,5.68-5.43,2.36c-17.12,7.46-35.96,21.37-53.97,37.33-18.01,15.94-35.27,33.86-50.16,49.22-9.84,10.1-18.58,19.07-26.24,25.92-1.8,1.77-19.42,19.25-40.32,39.79-22.05,21.68-47.67,46.71-62.21,60.39-4.22,3.92-7.43,6.87-9.74,8.83-4.28,3.61-6.93,7.13-8.56,10.4-1.62,3.28-2.28,6.33-2.31,9.46.02,2.73.56,5.52,1.64,8.36s2.75,5.7,4.9,8.41c4.3,5.42,10.66,10.17,17.78,12.96,4.73,1.86,9.77,2.89,14.77,2.89,7.27-.04,14.43-2.05,21.44-7.12,4.34-3.15,10.13-6.93,16.54-10.96,6.4-4.04,13.38-8.27,19.86-12.17,12.96-7.78,23.89-14.08,23.94-14.11l12.63,21.88s-.38.22-1.08.63c-.69.4-1.72.99-3,1.74-2.57,1.5-6.21,3.63-10.42,6.14-8.43,4.98-19.21,11.46-28.47,17.28-6.15,3.87-11.67,7.49-15.14,10.02-1.61,1.19-3.28,2.25-4.96,3.24l.96.65c-.46.73-.62,1.25-.64,2.13,0,1.2.55,3.28,2.14,5.37,1.55,2.08,3.97,4.05,6.78,5.18,1.89.75,3.93,1.21,6.12,1.21,2.9-.03,6.15-.74,9.97-2.94,8.77-5.02,19.32-12.92,32.82-20.04,13.49-7.12,30.16-13.34,50.89-14.8,15.99-1.13,31.73-3.73,45.57-7.38,13.8-3.67,25.74-8.5,33.9-13.62,5.48-3.38,9.15-6.87,10.9-9.57l21.04,14.03c-4.65,6.9-11.07,12.28-18.58,16.98-7.51,4.68-16.2,8.63-25.78,11.99-2.25.78-4.54,1.54-6.87,2.26.03.87.08,1.76.08,2.66.01,12.89-2.98,24.7-7.54,35.55-4.56,10.89-10.58,20.95-16.98,31.06-12.83,20.26-27.22,40.93-37.06,68.55-5.46,15.35-9.52,32.92-11.08,53.83h274.09c-5-23.52-7.03-46.55-7.03-69.02.02-42.08,6.96-82.08,14.36-119.79,7.43-37.69,15.25-73.14,17.56-105.81.22-3.22.34-6.53.34-9.93.02-17.88-3.26-38.09-10.19-57.6-6.9-19.53-17.42-38.34-31.65-53.84-9.49-10.34-20.62-19.21-33.56-26.03-17.23-9.07-37.71-14.56-62.32-14.58v-25.27c21.3-.01,40.6,3.62,57.7,10.1,17.14,6.48,32.09,15.8,44.81,26.95,25.44,22.35,42.04,51.87,51.34,81.68,6.2,19.9,9.15,40.01,9.15,58.59,0,3.98-.15,7.89-.41,11.73h0c-2.54,35.33-10.66,71.56-17.97,108.88-7.33,37.3-13.89,75.67-13.87,114.92,0,22.68,2.2,45.66,7.63,69.02h35.76c-.72-10.85-1.53-27.39-1.53-47.63,0-40.47,3.18-95.54,16.95-149.03Z"/>
  <path class="cls-2" d="M63.93,334c7.84,0,14.19,6.35,14.19,14.19s-6.35,14.17-14.19,14.17-14.19-6.34-14.19-14.17,6.36-14.19,14.19-14.19Z"/>
</svg>