<?xml version="1.0" encoding="UTF-8"?>
<svg id="_2" data-name="2" xmlns="http://www.w3.org/2000/svg" viewBox="0 0 497.39 800">
  <defs>
    <style>
      .cls-1 {
        fill: #000;
        stroke-width: 0px;
      }
    </style>
  </defs>
  <path class="cls-1" d="M248.7,252.2c69.64,0,126.11-56.45,126.11-126.09S318.33,0,248.7,0s-126.09,56.47-126.09,126.11,56.45,126.09,126.09,126.09Z"/>
  <path class="cls-1" d="M25.44,674.96h446.54s25.42-5.87,25.42-35.27c0-44.09-79.22-72.88-99.88-88.54-96.21-73.01-89.58-227.47,28.16-227.47v-46.47H71.73v46.47c117.73,0,124.36,154.46,28.14,227.47-20.65,15.66-99.87,44.45-99.87,88.54,0,29.4,25.44,35.27,25.44,35.27Z"/>
  <polygon class="cls-1" points="25.44 705.94 1.11 746.92 1.11 800 496.28 800 496.28 746.92 471.97 705.94 25.44 705.94"/>
</svg>