<?xml version="1.0" encoding="UTF-8"?>
<svg id="_2" data-name="2" xmlns="http://www.w3.org/2000/svg" viewBox="0 0 400.05 799.73">
  <defs>
    <style>
      .cls-1 {
        fill: #fff;
        stroke: #000;
        stroke-linejoin: round;
        stroke-width: 10px;
      }
    </style>
  </defs>
  <path class="cls-1" d="M327.56,562.68c-45.8-72.88-49.74-146.12-49.74-146.12H122.24s-3.95,73.25-49.75,146.12c-29.03,46.2-70.11,59.02-67.35,108.04,1.27,22.7,23.09,27.28,23.09,27.28h343.58s21.84-4.58,23.11-27.28c2.75-49.02-38.32-61.84-67.35-108.04Z"/>
  <path class="cls-1" d="M105.58,311.74h188.88c0-37.51,23.68-86.6,43.43-114.5,15.77-22.3,9.86-34.49-5.92-35.62-21.83-1.55-22,13.59-43.99,13.59s-21.99-13.59-43.98-13.59-21.99,13.59-43.98,13.59-21.99-13.59-43.98-13.59-21.99,13.59-43.98,13.59-22.16-15.13-43.99-13.59c-15.8,1.14-21.69,13.32-5.92,35.62,19.73,27.9,43.43,76.99,43.43,114.5Z"/>
  <path class="cls-1" d="M293.9,335.68H106.14c0,14.24-13.69,24.41-27.38,32.53-13.68,8.12-10.26,24.38,0,24.38h242.52c10.26,0,13.68-16.26,0-24.38-13.69-8.12-27.38-18.29-27.38-32.53Z"/>
  <path class="cls-1" d="M200.02,51.2c12.76,0,23.11-10.35,23.11-23.1s-10.35-23.11-23.11-23.11-23.11,10.35-23.11,23.11,10.35,23.1,23.11,23.1Z"/>
  <polygon class="cls-1" points="28.22 721.96 9.4 753.65 9.4 794.73 390.64 794.73 390.64 753.65 371.8 721.96 28.22 721.96"/>
  <path class="cls-1" d="M156.04,141.09c16.82,0,26.41,5.93,32.78,9.86,4.51,2.78,6.04,3.73,11.2,3.73s6.69-.94,11.2-3.73c6.37-3.94,15.96-9.86,32.78-9.86s26.44,5.93,32.79,9.86c3.71,2.3,5.44,3.32,8.8,3.61-.09-47.16-38.36-85.39-85.57-85.39s-85.46,38.23-85.57,85.39c3.36-.29,5.1-1.31,8.8-3.61,6.35-3.94,15.96-9.86,32.79-9.86Z"/>
</svg>