<?xml version="1.0" encoding="UTF-8"?>
<svg id="_2" data-name="2" xmlns="http://www.w3.org/2000/svg" viewBox="0 0 233.49 512.11">
  <defs>
    <style>
      .cls-1 {
        fill: #fff;
        stroke: #000;
        stroke-linejoin: round;
        stroke-width: 6px;
      }
    </style>
  </defs>
  <path class="cls-1" d="M104.25,84.81h24.98s-1.7-18.77-1.7-29.48c10.69,0,30.77,3.05,30.77,3.05v-27.67s-20.08,3.06-30.77,3.06c0-10.7,3.04-30.77,3.04-30.77h-27.66s3.06,20.07,3.06,30.77c-10.71,0-30.77-3.05-30.77-3.05v27.67s20.06-3.06,30.77-3.06c0,10.71-1.72,29.48-1.72,29.48Z"/>
  <path class="cls-1" d="M64.18,227.41h105.14s18.55-51.68,24.74-78.31c2.11-9.14-6.19-20.35-20.11-20.35H59.54c-13.92,0-22.23,11.22-20.1,20.35,6.17,26.63,24.74,78.31,24.74,78.31Z"/>
  <path class="cls-1" d="M191.13,373.77c-26.71-42.51-29.02-85.22-29.02-85.22h-90.75s-2.3,42.72-29,85.22c-16.95,26.95-40.9,34.43-39.28,63.01.74,13.24,13.46,15.91,13.46,15.91h200.4s12.74-2.67,13.48-15.91c1.6-28.58-22.35-36.07-39.28-63.01Z"/>
  <path class="cls-1" d="M171.5,241.39H61.99c0,8.3-7.99,14.23-15.97,18.96-7.99,4.74-6,14.23,0,14.23h141.45c5.98,0,7.98-9.48,0-14.23-7.99-4.74-15.97-10.67-15.97-18.96Z"/>
  <rect class="cls-1" x="85.3" y="98.78" width="62.87" height="16"/>
  <polygon class="cls-1" points="16.54 466.67 5.57 485.16 5.57 509.11 227.92 509.11 227.92 485.16 216.94 466.67 16.54 466.67"/>
</svg>