<?xml version="1.0" encoding="UTF-8"?>
<svg id="_2" data-name="2" xmlns="http://www.w3.org/2000/svg" viewBox="0 0 501.14 799.95">
  <defs>
    <style>
      .cls-1 {
        fill: #fff;
        stroke: #000;
        stroke-linejoin: round;
        stroke-width: 10px;
      }
    </style>
  </defs>
  <path class="cls-1" d="M250.57,254.03c68.76,0,124.53-55.74,124.53-124.51S319.33,5,250.57,5s-124.51,55.76-124.51,124.53,55.74,124.51,124.51,124.51Z"/>
  <path class="cls-1" d="M30.12,671.48h440.93s25.1-5.8,25.1-34.82c0-43.53-78.23-71.96-98.62-87.43-95.01-72.09-88.46-224.61,27.81-224.61v-45.89H75.83v45.89c116.25,0,122.79,152.52,27.79,224.61-20.39,15.46-98.62,43.89-98.62,87.43,0,29.03,25.12,34.82,25.12,34.82Z"/>
  <polygon class="cls-1" points="30.12 702.07 6.09 742.54 6.09 794.95 495.05 794.95 495.05 742.54 471.04 702.07 30.12 702.07"/>
</svg>