<?xml version="1.0" encoding="UTF-8"?>
<svg id="_2" data-name="2" xmlns="http://www.w3.org/2000/svg" viewBox="0 0 503.85 799.76">
  <defs>
    <style>
      .cls-1 {
        fill: #fff;
        stroke: #000;
        stroke-linejoin: round;
        stroke-width: 10px;
      }
    </style>
  </defs>
  <path class="cls-1" d="M34.71,670.41h434.44s29.71-5.85,29.71-35.07c0-43.84-40.32-59.83-59.42-84.76-80.63-101.19-74.76-347.59-74.76-347.59h-225.5s5.88,246.4-74.8,347.59c-19.06,24.93-59.38,40.93-59.38,84.76,0,29.22,29.71,35.07,29.71,35.07Z"/>
  <polygon class="cls-1" points="364.68 172.2 435.04 128.19 435.04 5 350.92 5 350.92 71.88 291.51 71.88 291.51 5 212.31 5 212.31 71.88 152.93 71.88 152.93 5 68.77 5 68.77 128.19 139.18 172.2 364.68 172.2"/>
  <polygon class="cls-1" points="34.71 701.2 10.49 741.97 10.49 794.76 493.36 794.76 493.36 741.97 469.15 701.2 34.71 701.2"/>
</svg>